<?xml version="1.0" encoding="UTF-8" standalone="no"?>
<svg
   xmlns:dc="http://purl.org/dc/elements/1.1/"
   xmlns:cc="http://creativecommons.org/ns#"
   xmlns:rdf="http://www.w3.org/1999/02/22-rdf-syntax-ns#"
   xmlns:svg="http://www.w3.org/2000/svg"
   xmlns="http://www.w3.org/2000/svg"
   id="svg2"
   xml:space="preserve"
   enable-background="new 0 0 300.28 387.28"
   viewBox="0 0 300.28 387.28"
   height="387.28px"
   width="300.28px"
   y="0px"
   x="0px"
   version="1.1"><metadata
   id="metadata218"><rdf:RDF><cc:Work
       rdf:about=""><dc:format>image/svg+xml</dc:format><dc:type
         rdf:resource="http://purl.org/dc/dcmitype/StillImage" /><dc:title></dc:title></cc:Work></rdf:RDF></metadata><defs
   id="defs216" /><g
   style=""
   id="temp" /><g
   style=""
   id="body" /><g
   style=""
   id="artwork"><g
     style=""
     id="g7"><rect
   style=""
   fill="#C69DC9"
   stroke="#000000"
   stroke-linecap="round"
   stroke-linejoin="round"
   id="rect9"
   height="22.69"
   width="58.65"
   transform="matrix(1 4.471006e-03 -4.471006e-03 1 0.6453 -0.9545)"
   y="132.51"
   x="184.49" /><polygon
   style=""
   fill="#AAD29A"
   stroke="#000000"
   stroke-linecap="round"
   stroke-linejoin="round"
   id="polygon11"
   points="287.73,155.53 239.23,155.31     228.9,144.16 239.33,132.62 287.83,132.84   " /><text
   style="font-size:20.27230072px;line-height:0%;font-family:'Liberation Sans', Helvetica, Arial, sans-serif"
   id="text13"
   font-size="20.2723"
   transform="matrix(1,0.0045,-0.0045,1,200.5098,150.9106)">A</text>

<text
   style="font-size:20.27230072px;line-height:0%;font-family:'Liberation Sans', Helvetica, Arial, sans-serif"
   id="text15"
   font-size="20.2723"
   transform="matrix(1,0.0045,-0.0045,1,248.1357,151.126)">T</text>

</g><g
     style=""
     id="g17"><rect
   style=""
   fill="#C69DC9"
   stroke="#000000"
   stroke-linecap="round"
   stroke-linejoin="round"
   id="rect19"
   height="22.69"
   width="61.54"
   transform="matrix(-1 -4.506486e-03 4.506486e-03 -1 511.89 509.0821)"
   y="242.62"
   x="225.75" /><polygon
   style=""
   fill="#AAD29A"
   stroke="#000000"
   stroke-linecap="round"
   stroke-linejoin="round"
   id="polygon21"
   points="184.05,242.3 229.66,242.5     239.99,253.65 229.56,265.19 183.95,264.98   " /><text
   style="font-size:20.27230072px;line-height:0%;font-family:'Liberation Sans', Helvetica, Arial, sans-serif"
   id="text23"
   font-size="20.2723"
   transform="matrix(1,0.0045,-0.0045,1,200.585,261.3169)">T</text>

<text
   style="font-size:20.27230072px;line-height:0%;font-family:'Liberation Sans', Helvetica, Arial, sans-serif"
   id="text25"
   font-size="20.2723"
   transform="matrix(1,0.0045,-0.0045,1,247.0684,261.5259)">A</text>

</g><g
     style=""
     id="g27"><rect
   style=""
   fill="#C69DC9"
   stroke="#000000"
   stroke-linecap="round"
   stroke-linejoin="round"
   id="rect29"
   height="22.69"
   width="57.2"
   transform="matrix(1 4.456162e-03 -4.456162e-03 1 1.4626 -0.9427)"
   y="316.4"
   x="183.67" /><polygon
   style=""
   fill="#AAD29A"
   stroke="#000000"
   stroke-linecap="round"
   stroke-linejoin="round"
   id="polygon31"
   points="286.91,339.42 236.96,339.2     226.63,328.05 237.06,316.52 287.01,316.74   " /><text
   style="font-size:20.27230072px;line-height:0%;font-family:'Liberation Sans', Helvetica, Arial, sans-serif"
   id="text33"
   font-size="20.2723"
   transform="matrix(1,0.0045,-0.0045,1,199.6875,334.3267)">A</text>

<text
   style="font-size:20.27230072px;line-height:0%;font-family:'Liberation Sans', Helvetica, Arial, sans-serif"
   id="text35"
   font-size="20.2723"
   transform="matrix(1,0.0045,-0.0045,1,247.3115,334.5376)">T</text>

</g><g
     style=""
     id="g37"><rect
   style=""
   fill="#F088B6"
   stroke="#000000"
   stroke-linecap="round"
   stroke-linejoin="round"
   id="rect39"
   height="22.68"
   width="57.2"
   transform="matrix(1 4.490232e-03 -4.490232e-03 1 0.813 -0.9543)"
   y="169.24"
   x="184.33" /><path
   style=""
   fill="#5BC5F2"
   stroke="#000000"
   stroke-linecap="round"
   stroke-linejoin="round"
   id="path41"
   d="M287.57,192.25l-49.95-0.22    c0,0-8.44-1-8.39-11.62c0.04-9.68,8.5-11.06,8.5-11.06l49.96,0.22L287.57,192.25z" /><text
   style="font-size:20.27230072px;line-height:0%;font-family:'Liberation Sans', Helvetica, Arial, sans-serif"
   id="text43"
   font-size="20.2723"
   transform="matrix(1,0.0045,-0.0045,1,199.2227,187.6318)">G</text>

<text
   style="font-size:20.27230072px;line-height:0%;font-family:'Liberation Sans', Helvetica, Arial, sans-serif"
   id="text45"
   font-size="20.2723"
   transform="matrix(1,0.0045,-0.0045,1,246.8408,187.8452)">C</text>

</g><g
     style=""
     id="g47"><rect
   style=""
   fill="#F088B6"
   stroke="#000000"
   stroke-linecap="round"
   stroke-linejoin="round"
   id="rect49"
   height="22.69"
   width="58.65"
   transform="matrix(-1 -4.462617e-03 4.462617e-03 -1 515.2913 435.8187)"
   y="205.99"
   x="228.81" /><path
   style=""
   fill="#5BC5F2"
   stroke="#000000"
   stroke-linecap="round"
   stroke-linejoin="round"
   id="path51"
   d="M184.22,205.66l48.5,0.22    c0,0,8.45,1,8.4,11.62c-0.04,9.68-8.5,11.06-8.5,11.06l-48.5-0.21L184.22,205.66z" /><text
   style="font-size:20.27230072px;line-height:0%;font-family:'Liberation Sans', Helvetica, Arial, sans-serif"
   id="text53"
   font-size="20.2723"
   transform="matrix(1,0.0045,-0.0045,1,199.6201,224.4956)">C</text>

<text
   style="font-size:20.27230072px;line-height:0%;font-family:'Liberation Sans', Helvetica, Arial, sans-serif"
   id="text55"
   font-size="20.2723"
   transform="matrix(1,0.0045,-0.0045,1,246.1113,224.7026)">G</text>

</g><g
     style=""
     id="g57"><rect
   style=""
   fill="#F088B6"
   stroke="#000000"
   stroke-linecap="round"
   stroke-linejoin="round"
   id="rect59"
   height="22.69"
   width="57.2"
   transform="matrix(1 4.507381e-03 -4.507381e-03 1 1.3119 -0.9546)"
   y="279.24"
   x="183.83" /><path
   style=""
   fill="#5BC5F2"
   stroke="#000000"
   stroke-linecap="round"
   stroke-linejoin="round"
   id="path61"
   d="M287.07,302.27l-49.95-0.22    c0,0-8.44-1-8.4-11.62c0.05-9.68,8.5-11.07,8.5-11.07l49.96,0.22L287.07,302.27z" /><text
   style="font-size:20.27230072px;line-height:0%;font-family:'Liberation Sans', Helvetica, Arial, sans-serif"
   id="text63"
   font-size="20.2723"
   transform="matrix(1,0.0045,-0.0045,1,198.7266,297.9458)">G</text>

<text
   style="font-size:20.27230072px;line-height:0%;font-family:'Liberation Sans', Helvetica, Arial, sans-serif"
   id="text65"
   font-size="20.2723"
   transform="matrix(1,0.0045,-0.0045,1,246.3467,298.1567)">C</text>

</g><path
     style=""
     fill="#FFE596"
     stroke="#000000"
     stroke-linecap="round"
     stroke-linejoin="round"
     id="path67"
     d="M71.61,25.95   c-2.85-5.23,5.24-18.71,5.24-18.71c-4.04,2.03-10.8,14.55-7.81,21.7c3.73,8.9,14.19,7.06,16.14,0.31   C85.18,29.25,76.44,34.84,71.61,25.95z" /><path
     style=""
     fill="#FFE596"
     stroke="#000000"
     stroke-linecap="round"
     stroke-linejoin="round"
     id="path69"
     d="M63.64,32.86   C55.64,19.53,90.19,1.29,90.19,1.29c-4.03,2.03-34.98,8.75-32.16,29.59c2.34,17.29,22.51,14.91,21.2-0.56   C79.24,30.31,71.33,45.7,63.64,32.86z" /><path
     style=""
     fill="#FFE596"
     stroke="#000000"
     stroke-linecap="round"
     stroke-linejoin="round"
     id="path71"
     d="M2.07,74.34   c0.18,20.14,36.31,52.25,94.39,28.68c60.37-24.48,55.6-23.77,72.84-20.36c0,0-9.28-5.16-11.18-5.78   c-14.59-4.74-40.73-0.1-78.26,14.46C29.16,111.01,2.07,74.34,2.07,74.34z" /><path
     style=""
     fill="#FFE596"
     stroke="#000000"
     stroke-linecap="round"
     stroke-linejoin="round"
     id="path73"
     d="M7.89,110.39   c16.88,50.5,58.99,57.58,115.72,30.14c88.62-42.88,119.33-64.87,139.92-39.35c0,0,6.54-1.5,4.88-2.75   c-36.29-27.48-106.86,3.61-160.43,28.66C28.43,164.27,7.89,110.39,7.89,110.39z" /><linearGradient
     gradientTransform="matrix(0.9537 0.3008 -0.3008 0.9537 -194.1238 -304.2583)"
     y2="208.0758"
     x2="365.9001"
     y1="211.5659"
     x1="380.3604"
     gradientUnits="userSpaceOnUse"
     id="SVGID_1_"><stop
       id="stop76"
       style="stop-color:#FFE596"
       offset="5.618000e-03" /><stop
       id="stop78"
       style="stop-color:#FFFFFF"
       offset="0.5449" /><stop
       id="stop80"
       style="stop-color:#FFE596"
       offset="1" /></linearGradient><path
     style=""
     fill="url(#SVGID_1_)"
     stroke="#000000"
     stroke-linecap="round"
     stroke-linejoin="round"
     id="path82"
     d="M81.34,4.5   C86.3-0.38,96-1.92,106.66,6.41c16.58,12.96,20.37,13.15,20.37,13.15s-1.33,1.56-4.12,1.42c-5.7-0.28-14.02-7.09-20.73-12.62   C93.45,1.14,81.34,4.5,81.34,4.5z" /><path
     style=""
     fill="#FFE596"
     stroke="#000000"
     stroke-linecap="round"
     stroke-linejoin="round"
     id="path84"
     d="M32.93,65.06   C13.08,54,21.23,28.5,21.23,28.5c-6.57,11.53-5.85,37.63,13.28,46c21.03,9.19,32.56-12.7,30.76-20.48   C65.28,54.02,56.79,78.36,32.93,65.06z" /><path
     style=""
     fill="#FFE596"
     stroke="#000000"
     stroke-linecap="round"
     stroke-linejoin="round"
     id="path86"
     d="M43.4,46.47   c-6.42-6.22-1.31-24.14-1.31-24.14C36.1,34.06,35.74,47.3,42.8,53.19c12.06,10.06,25.04-2.37,23.81-11.47   C66.61,41.71,59.04,61.62,43.4,46.47z" /><linearGradient
     gradientTransform="matrix(0.9537 0.3008 -0.3008 0.9537 -194.1238 -304.2583)"
     y2="294.8817"
     x2="331.3057"
     y1="283.3745"
     x1="359.3174"
     gradientUnits="userSpaceOnUse"
     id="SVGID_2_"><stop
       id="stop89"
       style="stop-color:#FFE596"
       offset="5.618000e-03" /><stop
       id="stop91"
       style="stop-color:#FFFFFF"
       offset="0.5449" /><stop
       id="stop93"
       style="stop-color:#FFE596"
       offset="1" /></linearGradient><path
     style=""
     fill="url(#SVGID_2_)"
     stroke="#000000"
     stroke-linecap="round"
     stroke-linejoin="round"
     id="path95"
     d="M29.52,58.66   C3.53,78.84,7.89,113.08,7.89,113.08C-2.75,78.84,17.26,56.59,33.3,46.57c8.4-5.25,29.05-12.46,31.98,7.45   C65.28,54.02,55.17,38.74,29.52,58.66z" /><linearGradient
     gradientTransform="matrix(0.9537 0.3008 -0.3008 0.9537 -194.1238 -304.2583)"
     y2="272.5391"
     x2="324.5613"
     y1="267.1636"
     x1="348.0098"
     gradientUnits="userSpaceOnUse"
     id="SVGID_3_"><stop
       id="stop98"
       style="stop-color:#FFE596"
       offset="5.618000e-03" /><stop
       id="stop100"
       style="stop-color:#FFFFFF"
       offset="0.5449" /><stop
       id="stop102"
       style="stop-color:#FFE596"
       offset="1" /></linearGradient><path
     style=""
     fill="url(#SVGID_3_)"
     stroke="#000000"
     stroke-linecap="round"
     stroke-linejoin="round"
     id="path104"
     d="M25.43,40.31   C0.03,55.43,2.55,80.05,2.55,80.05c-6.51-20.71,7.9-38.66,23.73-48.96c12.71-8.27,40.08-10.47,40.23,11.67   C66.51,42.76,59.85,19.83,25.43,40.31z" /><linearGradient
     gradientTransform="matrix(0.9537 0.3008 -0.3008 0.9537 -194.1238 -304.2583)"
     y2="214.2394"
     x2="360.4323"
     y1="218.3608"
     x1="371.7686"
     gradientUnits="userSpaceOnUse"
     id="SVGID_4_"><stop
       id="stop107"
       style="stop-color:#FFE596"
       offset="5.618000e-03" /><stop
       id="stop109"
       style="stop-color:#FFFFFF"
       offset="0.5449" /><stop
       id="stop111"
       style="stop-color:#FFE596"
       offset="1" /></linearGradient><path
     style=""
     fill="url(#SVGID_4_)"
     stroke="#000000"
     stroke-linecap="round"
     stroke-linejoin="round"
     id="path113"
     d="M73.75,10.04   c3.67-6.21,13.14-6.37,22.59,1.37c12.09,9.9,19.04,11.54,20.24,10.84c0,0-4.09,1.53-4.45,1.62c-7.32,1.92-14.99-6.59-19.79-10.12   C81.71,5.93,73.75,10.04,73.75,10.04z" /><linearGradient
     gradientTransform="matrix(0.9537 0.3008 -0.3008 0.9537 -194.1238 -304.2583)"
     y2="231.1841"
     x2="342.9734"
     y1="234.2319"
     x1="354.6572"
     gradientUnits="userSpaceOnUse"
     id="SVGID_5_"><stop
       id="stop116"
       style="stop-color:#FFE596"
       offset="5.618000e-03" /><stop
       id="stop118"
       style="stop-color:#FFFFFF"
       offset="0.5449" /><stop
       id="stop120"
       style="stop-color:#FFE596"
       offset="1" /></linearGradient><path
     style=""
     fill="url(#SVGID_5_)"
     stroke="#000000"
     stroke-linecap="round"
     stroke-linejoin="round"
     id="path122"
     d="M61.85,10.86   c-18.97-1-20.4,13.48-20.4,13.48c1.5-4.66,6.15-18.41,24.43-17.82c20.6,0.67,24.38,19.64,18.04,25.35   C83.92,31.88,89.43,12.31,61.85,10.86z" /><linearGradient
     gradientTransform="matrix(0.9537 0.3008 -0.3008 0.9537 -194.1238 -304.2583)"
     y2="242.8201"
     x2="330.0645"
     y1="245.3862"
     x1="348.0244"
     gradientUnits="userSpaceOnUse"
     id="SVGID_6_"><stop
       id="stop125"
       style="stop-color:#FFE596"
       offset="5.618000e-03" /><stop
       id="stop127"
       style="stop-color:#FFFFFF"
       offset="0.5449" /><stop
       id="stop129"
       style="stop-color:#FFE596"
       offset="1" /></linearGradient><path
     style=""
     fill="url(#SVGID_6_)"
     stroke="#000000"
     stroke-linecap="round"
     stroke-linejoin="round"
     id="path131"
     d="M49.98,14.74   c-24.81-0.12-31.33,21.58-31.33,21.58C20.2,22.58,29.77,8.45,51.44,8.62c16.64,0.13,31.92,11.71,27.32,26.75   C78.76,35.36,78.91,14.88,49.98,14.74z" /><g
     style=""
     id="g133"><polygon
       style=""
       fill="#F088B6"
       stroke="#000000"
       stroke-linecap="round"
       stroke-linejoin="round"
       id="polygon135"
       points="150.03,76.2 123.26,110.85     103.97,114.43 130.72,79.78   " /></g><path
     style=""
     fill="#5BC5F2"
     stroke="#000000"
     stroke-linecap="round"
     stroke-linejoin="round"
     id="path137"
     d="M119.75,105.63   c4.32-0.25,4.87,3.62,4.87,3.62l-20.87,30.35l-22.15,6.82l20.93-30.27C102.53,116.15,109.13,106.25,119.75,105.63z" /><g
     style=""
     id="g139"><polygon
       style=""
       fill="#F088B6"
       stroke="#000000"
       stroke-linecap="round"
       stroke-linejoin="round"
       id="polygon141"
       points="168.35,92.47 146.46,122.58     124.41,131.01 149.17,95.7   " /><path
       style=""
       fill="#5BC5F2"
       stroke="#000000"
       stroke-linecap="round"
       stroke-linejoin="round"
       id="path143"
       d="M173.14,85.09l-9.69,14.52    c0,0-4.24,4.83-9.48,6.53c-7.23,2.34-10.81-1.75-10.81-1.75l18.07-25.61L173.14,85.09z" /></g><g
     style=""
     id="g145"><polygon
       style=""
       fill="#C69DC9"
       stroke="#000000"
       stroke-linecap="round"
       stroke-linejoin="round"
       id="polygon147"
       points="91.33,113.52 65.78,149.1     51.09,147.98 69.12,121.83   " /><polygon
       style=""
       fill="#AAD29A"
       stroke="#000000"
       stroke-linecap="round"
       stroke-linejoin="round"
       id="polygon149"
       points="111.43,86.7 86.11,120.8     74.38,126.69 69.12,121.83 90.6,92.9   " /></g><g
     style=""
     id="g151"><polygon
       style=""
       fill="#C69DC9"
       stroke="#000000"
       stroke-linecap="round"
       stroke-linejoin="round"
       id="polygon153"
       points="231.95,96.44 186.27,98.71     176.35,93.01 209.36,91.06   " /><polygon
       style=""
       fill="#AAD29A"
       stroke="#000000"
       stroke-linecap="round"
       stroke-linejoin="round"
       id="polygon155"
       points="267,95.02 222.61,96.9     209.55,94.55 209.36,91.06 247.03,89.47   " /></g><g
     style=""
     id="g157"><polygon
       style=""
       fill="#C69DC9"
       stroke="#000000"
       stroke-linecap="round"
       stroke-linejoin="round"
       id="polygon159"
       points="71.65,98.72 51.5,123.87     38.51,119.49 52.99,100.32   " /></g><polygon
     style=""
     fill="#AAD29A"
     stroke="#000000"
     stroke-linecap="round"
     stroke-linejoin="round"
     id="polygon161"
     points="52.82,115.05 53.43,121.29    38.39,143.48 26.25,135.09 39.67,118.16  " /><g
     style=""
     id="g163"><polygon
       style=""
       fill="#F088B6"
       stroke="#000000"
       stroke-linecap="round"
       stroke-linejoin="round"
       id="polygon165"
       points="35.87,99.51 15.85,127.91     9.49,115.76 18,103.65   " /><path
       style=""
       fill="#5BC5F2"
       stroke="#000000"
       stroke-linecap="round"
       stroke-linejoin="round"
       id="path167"
       d="M37.2,99.14l-9.81,12.96    c0,0-4.93,2.1-8.15-0.98c-2.64-2.52-1.23-7.48-1.23-7.48l7.1-9.02L37.2,99.14z" /></g><g
     style=""
     id="g169"><polygon
   style=""
   fill="#F088B6"
   stroke="#000000"
   stroke-linecap="round"
   stroke-linejoin="round"
   id="polygon171"
   points="227.69,102.2 278.24,102.17     286.63,124.11 227.99,124.89   " /><path
   style=""
   fill="#5BC5F2"
   stroke="#000000"
   stroke-linecap="round"
   stroke-linejoin="round"
   id="path173"
   d="M183.05,102.79l48.5-0.64    c0,0,8.46,0.86,8.6,11.47c0.13,9.68-8.3,11.21-8.3,11.21l-48.5,0.64L183.05,102.79z" /><text
   style="font-size:20.27230072px;line-height:0%;font-family:'Liberation Sans', Helvetica, Arial, sans-serif"
   id="text175"
   font-size="20.2723"
   transform="matrix(0.9999,-0.0132,0.0132,0.9999,198.7871,121.354)">C</text>

<text
   style="font-size:20.27230072px;line-height:0%;font-family:'Liberation Sans', Helvetica, Arial, sans-serif"
   id="text177"
   font-size="20.2723"
   transform="matrix(0.9999,-0.0132,0.0132,0.9999,245.2754,120.7383)">G</text>

</g><linearGradient
     y2="108.8929"
     x2="121.7443"
     y1="150.686"
     x1="141.8672"
     gradientUnits="userSpaceOnUse"
     id="SVGID_7_"><stop
       id="stop180"
       style="stop-color:#FFE596"
       offset="5.618000e-03" /><stop
       id="stop182"
       style="stop-color:#FFFFFF"
       offset="0.5449" /><stop
       id="stop184"
       style="stop-color:#FFE596"
       offset="1" /></linearGradient><path
     style=""
     fill="url(#SVGID_7_)"
     stroke="#000000"
     stroke-linecap="round"
     stroke-linejoin="round"
     id="path186"
     d="M174.66,358.25   c0-63.76-0.02-207.15,0-208.07c0.58-27.48,0.58-87.55-61.53-69.88c0,0,19.35-4.1,32.45-5.5c44.32-4.71,43.27,48.68,44.23,63.6   v219.85" /><linearGradient
     y2="123.3041"
     x2="226.0106"
     y1="155.3882"
     x1="244.0088"
     gradientUnits="userSpaceOnUse"
     id="SVGID_8_"><stop
       id="stop189"
       style="stop-color:#FFE596"
       offset="5.618000e-03" /><stop
       id="stop191"
       style="stop-color:#FFFFFF"
       offset="0.5449" /><stop
       id="stop193"
       style="stop-color:#FFE596"
       offset="1" /></linearGradient><path
     style=""
     fill="url(#SVGID_8_)"
     stroke="#000000"
     stroke-linecap="round"
     stroke-linejoin="round"
     id="path195"
     d="M282.57,355.28V155.45   c0.33-40.83-9.88-75.77-66.81-65.95c29.85-5.15,33.92-3.92,46.72-1.57c23.55,4.32,36.68,24.34,37.3,58.1v209.25" /></g><g
   style=""
   id="text"><text
   y="13.783657"
   x="151.42386"
   style="font-size:16px;line-height:0%;font-family:'Liberation Sans', Helvetica, Arial, sans-serif"
   id="text198"
   font-size="16"><tspan
     id="tspan3546"
     style="font-size:12.5px">Escalera de desoxirribosa</tspan></text>
<text
   id="text135"
   y="26.043098"
   x="185.60777"
   style="font-size:16px;line-height:0%;font-family:'Liberation Sans', Helvetica, Arial, sans-serif"
   font-size="16"><tspan
     id="tspan137"
     style="font-size:12.5px">y grupo fosfato</tspan></text>

<text
   y="378.60123"
   x="211.76979"
   style="font-size:16px;line-height:0%;font-family:'Liberation Sans', Helvetica, Arial, sans-serif"
   id="text200"
   font-size="16"><tspan
     id="tspan3548"
     style="font-size:12.5px">enlaces</tspan></text>

<g
   style=""
   id="g202"><path
     style=""
     id="path204"
     d="M0,189.43"
     stroke-width="4.609"
     stroke="#0069B4"
     fill="none" /></g><polyline
   style=""
   id="polyline206"
   points="207.09,342.6 207.09,356.6 260.42,356.6 260.42,342.6  "
   stroke="#000000"
   fill="none" /><line
   style=""
   id="line208"
   y2="369.93"
   x2="233.75"
   y1="355.93"
   x1="233.75"
   stroke="#000000"
   fill="none" /><polyline
   style=""
   id="polyline210"
   points="178.83,111.93 178.83,51.27 288.84,51.27 288.84,113.27  "
   stroke="#000000"
   fill="none" /><line
   style=""
   id="line212"
   y2="51.27"
   x2="233.83"
   y1="29.93"
   x1="233.83"
   stroke="#000000"
   fill="none" /><text
   id="text3550"
   y="330.34616"
   x="59.093735"
   style="font-style:normal;font-weight:normal;line-height:0%;font-family:sans-serif;text-align:justify;letter-spacing:0px;word-spacing:0px;writing-mode:lr-tb;text-anchor:start;fill:#000000;fill-opacity:1;stroke:none;stroke-width:1px;stroke-linecap:butt;stroke-linejoin:miter;stroke-opacity:1"
   xml:space="preserve"><tspan
     style="font-size:11.25px;line-height:1.25"
     y="330.34616"
     x="59.093735"
     id="tspan3552">Adenina-Timina </tspan></text>

<path
   id="path3554"
   d="M 196.10324,327.52073 H 156.65051"
   style="fill:none;fill-rule:evenodd;stroke:#000000;stroke-width:0.79349208px;stroke-linecap:butt;stroke-linejoin:miter;stroke-opacity:1" /></g><path
   id="path3554-3"
   d="M 196.10324,290.12931 H 153.74958"
   style="fill:none;fill-rule:evenodd;stroke:#000000;stroke-width:0.82214713px;stroke-linecap:butt;stroke-linejoin:miter;stroke-opacity:1" /><path
   id="path3554-3-6"
   d="M 195.90511,253.28743 H 152.97126"
   style="fill:none;fill-rule:evenodd;stroke:#000000;stroke-width:0.82775915px;stroke-linecap:butt;stroke-linejoin:miter;stroke-opacity:1" /><path
   id="path3554-3-6-7"
   d="m 197.09389,216.18611 -43.51404,0"
   style="fill:none;fill-rule:evenodd;stroke:#000000;stroke-width:0.83333337px;stroke-linecap:butt;stroke-linejoin:miter;stroke-opacity:1" /><text
   id="text3601"
   y="292.96893"
   x="49.315903"
   style="font-style:normal;font-weight:normal;line-height:0%;font-family:sans-serif;text-align:justify;letter-spacing:0px;word-spacing:0px;writing-mode:lr-tb;text-anchor:start;fill:#000000;fill-opacity:1;stroke:none;stroke-width:1px;stroke-linecap:butt;stroke-linejoin:miter;stroke-opacity:1"
   xml:space="preserve"><tspan
     style="font-size:11.25px;line-height:1.25"
     y="292.96893"
     x="49.315903"
     id="tspan3603">Guanina-Citosina </tspan></text>

<text
   id="text3605"
   y="256.73792"
   x="56.479477"
   style="font-style:normal;font-weight:normal;line-height:0%;font-family:sans-serif;text-align:justify;letter-spacing:0px;word-spacing:0px;writing-mode:lr-tb;text-anchor:start;fill:#000000;fill-opacity:1;stroke:none;stroke-width:1px;stroke-linecap:butt;stroke-linejoin:miter;stroke-opacity:1"
   xml:space="preserve"><tspan
     style="font-size:11.25px;line-height:1.25"
     y="256.73792"
     x="56.479477"
     id="tspan3607">Timina-Adenina </tspan></text>

<text
   id="text3609"
   y="218.88893"
   x="49.925644"
   style="font-style:normal;font-weight:normal;line-height:0%;font-family:sans-serif;text-align:justify;letter-spacing:0px;word-spacing:0px;writing-mode:lr-tb;text-anchor:start;fill:#000000;fill-opacity:1;stroke:none;stroke-width:1px;stroke-linecap:butt;stroke-linejoin:miter;stroke-opacity:1"
   xml:space="preserve"><tspan
     id="tspan131"
     style="font-size:11.25px;line-height:1.25"
     y="218.88893"
     x="49.925644">Citosina-Guanina</tspan></text>

</svg>