<?xml version="1.0" encoding="UTF-8" standalone="no"?>
<!-- Created with Inkscape (http://www.inkscape.org/) -->

<svg
   width="103.9891mm"
   height="119.31094mm"
   viewBox="-5 -4 113.989 130.78424"
   version="1.1"
   id="svg5"
   inkscape:version="1.2.2 (b0a8486541, 2022-12-01)"
   sodipodi:docname="avis-minima-reinforced.svg"
   inkscape:export-filename="/home/alex/projects/alexfernandez.github.io/2024/pics/aves-aeternae-model.png"
   inkscape:export-xdpi="75.959999"
   inkscape:export-ydpi="75.959999"
   xmlns:inkscape="http://www.inkscape.org/namespaces/inkscape"
   xmlns:sodipodi="http://sodipodi.sourceforge.net/DTD/sodipodi-0.dtd"
   xmlns="http://www.w3.org/2000/svg"
   xmlns:svg="http://www.w3.org/2000/svg">
  <sodipodi:namedview
     id="namedview7"
     pagecolor="#ffffff"
     bordercolor="#eeeeee"
     borderopacity="1"
     inkscape:pageshadow="0"
     inkscape:pageopacity="0"
     inkscape:pagecheckerboard="0"
     inkscape:document-units="mm"
     showgrid="false"
     inkscape:zoom="1.0203715"
     inkscape:cx="168.56605"
     inkscape:cy="192.57691"
     inkscape:window-width="2256"
     inkscape:window-height="1419"
     inkscape:window-x="0"
     inkscape:window-y="0"
     inkscape:window-maximized="1"
     inkscape:current-layer="g1728"
     units="mm"
     inkscape:showpageshadow="2"
     inkscape:deskcolor="#d1d1d1" />
  <defs
     id="defs2" />
  <g
     inkscape:label="Layer 1"
     inkscape:groupmode="layer"
     id="layer1"
     transform="translate(-17.118596,-135.95803)">
    <text
       xml:space="preserve"
       style="font-size:4.23333px;line-height:1.25;font-family:sans-serif;-inkscape-font-specification:'sans-serif, Normal';stroke-width:0.264583"
       x="59.377934"
       y="248.6507"
       id="text11979"><tspan
         sodipodi:role="line"
         id="tspan11977"
         style="font-size:5.64444px;text-align:center;text-anchor:middle;stroke-width:0.264583"
         x="59.377934"
         y="248.6507">Avis Æterna</tspan><tspan
         sodipodi:role="line"
         style="text-align:center;text-anchor:middle;stroke-width:0.264583"
         x="59.928268"
         y="254.42232"
         id="tspan19883"><tspan
   style="font-size:3.52778px;text-align:center;text-anchor:middle"
   id="tspan28195">alexfernandeznpm@gmail.com</tspan> </tspan></text>
    <g
       id="g1728"
       transform="translate(4.5571929,6.5358579)">
      <path
         style="fill:#344dd0;fill-opacity:0.752981;stroke:#4148d1;stroke-width:0.499999;stroke-dasharray:none;stroke-opacity:1"
         d="m 58.757042,197.90664 12.874924,-11.13776 18.005131,4.71171 -3.241151,6.00866 -9.120044,8.65329 -5.857973,0.11197 z"
         id="path4915" />
      <path
         style="fill:none;stroke:#494949;stroke-width:0.5;stroke-linecap:butt;stroke-linejoin:miter;stroke-miterlimit:4;stroke-dasharray:none;stroke-opacity:1"
         d="m 17.745665,218.58906 c 0,0 -6.316176,-8.95139 -2.143636,-20.19919 4.17258,-11.24778 35.110447,-43.40824 53.815698,-51.68116 18.705261,-8.2729 31.064583,-2.34863 31.064583,-2.34863"
         id="path4859"
         sodipodi:nodetypes="czzc" />
      <rect
         style="fill:#344dd0;fill-opacity:0.752941;stroke:#4148d1;stroke-width:0.264999;stroke-linecap:round;stroke-linejoin:round;stroke-miterlimit:10;stroke-dasharray:none;stroke-dashoffset:0;stroke-opacity:1"
         id="rect4722"
         width="1.735001"
         height="1.735001"
         x="84.957787"
         y="191.62553"
         transform="matrix(-0.71324685,0.70091293,0.70091293,0.71324685,0,0)" />
      <g
         id="g4857"
         transform="matrix(-0.20588355,-0.9785765,-0.9785765,0.20588355,242.81065,214.056)">
        <rect
           style="fill:#344dd0;fill-opacity:0.752941;stroke:#4148d1;stroke-width:0.264999;stroke-linecap:round;stroke-linejoin:round;stroke-miterlimit:10;stroke-dasharray:none;stroke-dashoffset:0;stroke-opacity:1"
           id="rect4839"
           width="1.735001"
           height="1.735001"
           x="51.545803"
           y="196.29001"
           transform="matrix(-0.75317542,0.65781973,0.65781973,0.75317542,0,0)" />
        <path
           style="color:#000000;fill:#ffffff;stroke:#000000;stroke-width:0.264999;stroke-linecap:round;stroke-linejoin:round;stroke-miterlimit:10;stroke-opacity:1;-inkscape-stroke:none"
           d="m 92.061335,183.11536 -1.119796,0.98665 c -1.647471,2.84441 3.705242,6.20466 4.972866,4.34462 l 0.826767,-1.21284 c 0.482838,-2.03324 -2.39062,-5.3527 -4.679837,-4.11843 z"
           id="path4841"
           sodipodi:nodetypes="ccccc" />
        <g
           id="g4847"
           transform="matrix(-0.5248347,0.85120417,0.85120417,0.5248347,293.4458,121.64505)">
          <path
             style="color:#000000;fill:#ffffff;stroke-width:0.264999;stroke-linecap:round;stroke-linejoin:round;stroke-miterlimit:10;-inkscape-stroke:none"
             d="m 158.90659,-140.68832 h 0.27197 v 0.96317 h -0.27197 z"
             id="path4843" />
          <path
             style="color:#000000;fill:#000000;stroke-linecap:round;stroke-linejoin:round;stroke-miterlimit:10;-inkscape-stroke:none"
             d="m 158.90625,-140.82031 a 0.13251275,0.13251275 0 0 0 -0.13281,0.13281 v 0.96289 a 0.13251275,0.13251275 0 0 0 0.13281,0.13281 h 0.27148 a 0.13251275,0.13251275 0 0 0 0.13282,-0.13281 v -0.96289 a 0.13251275,0.13251275 0 0 0 -0.13282,-0.13281 z m 0.13281,0.26367 h 0.008 v 0.69922 h -0.008 z"
             id="path4845" />
        </g>
        <g
           id="g4855"
           transform="matrix(0.30115534,-0.33795749,0.84985286,0.75730745,21.631082,205.4705)"
           style="fill:none;stroke-width:1.39309">
          <ellipse
             style="fill:none;fill-opacity:1;stroke:#000000;stroke-width:0.369166;stroke-linecap:round;stroke-linejoin:round;stroke-miterlimit:10;stroke-dasharray:none;stroke-dashoffset:0;stroke-opacity:1"
             id="ellipse4849"
             cy="35.886848"
             cx="136.85449"
             rx="4.3030696"
             ry="2.8675005" />
          <path
             style="fill:none;stroke:#000000;stroke-width:0.368587px;stroke-linecap:butt;stroke-linejoin:miter;stroke-opacity:1"
             d="m 134.77462,33.68331 4.06217,4.516264"
             id="path4851"
             sodipodi:nodetypes="cc" />
          <path
             style="fill:none;stroke:#000000;stroke-width:0.368587px;stroke-linecap:butt;stroke-linejoin:miter;stroke-opacity:1"
             d="m 134.8374,38.013163 4.37662,-4.147798"
             id="path4853"
             sodipodi:nodetypes="cc" />
        </g>
      </g>
      <ellipse
         style="fill:#d6d6d6;fill-opacity:0.608816;stroke:#000000;stroke-width:0.265003;stroke-linecap:round;stroke-linejoin:round;stroke-miterlimit:10;stroke-dasharray:none;stroke-dashoffset:0;stroke-opacity:1"
         id="ellipse2729"
         cx="-71.55014"
         cy="178.67236"
         rx="55.676998"
         ry="27.721523"
         transform="matrix(0.76948201,-0.63866849,0.64529717,0.76393164,0,0)" />
      <path
         style="fill:none;stroke:#494949;stroke-width:1;stroke-linecap:butt;stroke-linejoin:miter;stroke-miterlimit:4;stroke-dasharray:none;stroke-opacity:0.461148"
         d="m 100.96916,144.92274 c 0,0 5.87766,11.42483 -0.0172,22.42542 -5.894824,11.0006 -15.651338,21.77805 -39.906126,40.36889 -24.254788,18.59084 -43.125316,10.87201 -43.125316,10.87201"
         id="path3654"
         sodipodi:nodetypes="czzc" />
      <path
         style="fill:none;stroke:#494949;stroke-width:0.25;stroke-linecap:butt;stroke-linejoin:miter;stroke-miterlimit:4;stroke-dasharray:none;stroke-opacity:1"
         d="m 17.745665,218.58906 c 0,0 -4.10434,-6.42932 0.0682,-17.67712 4.17258,-11.24778 42.191064,-45.8515 60.896315,-54.12442 18.705261,-8.2729 22.0841,-1.86495 22.0841,-1.86495"
         id="path4556"
         sodipodi:nodetypes="czzc" />
      <path
         style="fill:none;stroke:#494949;stroke-width:0.25;stroke-linecap:butt;stroke-linejoin:miter;stroke-miterlimit:4;stroke-dasharray:none;stroke-opacity:1"
         d="m 90.238873,183.3022 c 0,0 -3.161992,-9.32218 -7.366746,-14.06131 -3.731918,-4.20621 -13.281962,-12.21807 -24.513836,-15.06868 -11.231874,-2.85061 -12.590645,8.78718 -12.590645,8.78718"
         id="path4558"
         sodipodi:nodetypes="cssc" />
      <rect
         style="fill:#344dd0;fill-opacity:0.752941;stroke:#4148d1;stroke-width:0.264999;stroke-linecap:round;stroke-linejoin:round;stroke-miterlimit:10;stroke-dasharray:none;stroke-dashoffset:0;stroke-opacity:1"
         id="rect4986"
         width="1.735001"
         height="1.735001"
         x="63.169785"
         y="155.10188"
         transform="matrix(-0.71324685,0.70091293,0.70091293,0.71324685,0,0)" />
      <g
         id="g4837">
        <rect
           style="fill:#344dd0;fill-opacity:0.752941;stroke:#4148d1;stroke-width:0.264999;stroke-linecap:round;stroke-linejoin:round;stroke-miterlimit:10;stroke-dasharray:none;stroke-dashoffset:0;stroke-opacity:1"
           id="rect4988"
           width="1.735001"
           height="1.735001"
           x="51.545803"
           y="196.29001"
           transform="matrix(-0.75317542,0.65781973,0.65781973,0.75317542,0,0)" />
        <path
           style="color:#000000;fill:#ffffff;stroke:#000000;stroke-width:0.264999;stroke-linecap:round;stroke-linejoin:round;stroke-miterlimit:10;stroke-opacity:1;-inkscape-stroke:none"
           d="m 92.061335,183.11536 -1.119796,0.98665 c -1.647471,2.84441 3.705242,6.20466 4.972866,4.34462 l 0.826767,-1.21284 c 0.482838,-2.03324 -2.39062,-5.3527 -4.679837,-4.11843 z"
           id="path5563"
           sodipodi:nodetypes="ccccc" />
        <g
           id="rect5549"
           transform="matrix(-0.5248347,0.85120417,0.85120417,0.5248347,293.4458,121.64505)">
          <path
             style="color:#000000;fill:#ffffff;stroke-width:0.264999;stroke-linecap:round;stroke-linejoin:round;stroke-miterlimit:10;-inkscape-stroke:none"
             d="m 158.90659,-140.68832 h 0.27197 v 0.96317 h -0.27197 z"
             id="path5569" />
          <path
             style="color:#000000;fill:#000000;stroke-linecap:round;stroke-linejoin:round;stroke-miterlimit:10;-inkscape-stroke:none"
             d="m 158.90625,-140.82031 a 0.13251275,0.13251275 0 0 0 -0.13281,0.13281 v 0.96289 a 0.13251275,0.13251275 0 0 0 0.13281,0.13281 h 0.27148 a 0.13251275,0.13251275 0 0 0 0.13282,-0.13281 v -0.96289 a 0.13251275,0.13251275 0 0 0 -0.13282,-0.13281 z m 0.13281,0.26367 h 0.008 v 0.69922 h -0.008 z"
             id="path5571" />
        </g>
        <g
           id="g5559"
           transform="matrix(0.30115534,-0.33795749,0.84985286,0.75730745,21.631082,205.4705)"
           style="fill:none;stroke-width:1.39309">
          <ellipse
             style="fill:none;fill-opacity:1;stroke:#000000;stroke-width:0.369166;stroke-linecap:round;stroke-linejoin:round;stroke-miterlimit:10;stroke-dasharray:none;stroke-dashoffset:0;stroke-opacity:1"
             id="circle5553"
             cy="35.886848"
             cx="136.85449"
             rx="4.3030696"
             ry="2.8675005" />
          <path
             style="fill:none;stroke:#000000;stroke-width:0.368587px;stroke-linecap:butt;stroke-linejoin:miter;stroke-opacity:1"
             d="m 134.77462,33.68331 4.06217,4.516264"
             id="path5555"
             sodipodi:nodetypes="cc" />
          <path
             style="fill:none;stroke:#000000;stroke-width:0.368587px;stroke-linecap:butt;stroke-linejoin:miter;stroke-opacity:1"
             d="m 134.8374,38.013163 4.37662,-4.147798"
             id="path5557"
             sodipodi:nodetypes="cc" />
        </g>
      </g>
      <path
         style="fill:#344dd0;fill-opacity:0.75294119;stroke:#4148d1;stroke-width:0.264583px;stroke-linecap:butt;stroke-linejoin:miter;stroke-opacity:1"
         d="m 102.11224,163.34937 -2.50366,6.0571 14.99219,-4.86592 1.76693,-4.13186 -12.91686,-3.19941 z"
         id="path7756"
         sodipodi:nodetypes="cccccc" />
      <path
         style="fill:#344dd0;fill-opacity:0.75294119;stroke:#4148d1;stroke-width:0.264583px;stroke-linecap:butt;stroke-linejoin:miter;stroke-opacity:1"
         d="m 83.908308,144.65028 -5.325495,2.65605 4.68485,-14.7779 4.13186,-2.89299 3.975593,13.20269 z"
         id="path8488"
         sodipodi:nodetypes="cccccc" />
      <path
         style="fill:none;stroke:#494949;stroke-width:1;stroke-linecap:butt;stroke-linejoin:miter;stroke-miterlimit:4;stroke-dasharray:none;stroke-opacity:0.513361"
         d="m 45.696406,162.95762 c -2.267969,7.96507 -0.405096,12.82396 6.250959,19.84652 6.656054,7.02255 8.485127,11.54939 23.899185,14.81763 15.414057,3.26823 14.567065,-14.20604 14.567065,-14.20604"
         id="path4820"
         sodipodi:nodetypes="czzc" />
      <path
         style="fill:none;stroke:#494949;stroke-width:0.5;stroke-linecap:butt;stroke-linejoin:miter;stroke-miterlimit:4;stroke-dasharray:none;stroke-opacity:1"
         d="m 100.53972,144.51849 c 0,0 4.10435,6.42932 -0.0682,17.67712 -4.172583,11.24778 -42.191067,45.8515 -60.896318,54.12442 -18.705261,8.2729 -22.0841,1.86495 -22.0841,1.86495"
         id="path4822"
         sodipodi:nodetypes="czzc" />
      <path
         style="fill:#344dd0;fill-opacity:0.752941;stroke:#4148d1;stroke-width:0.264583px;stroke-linecap:butt;stroke-linejoin:miter;stroke-opacity:1"
         d="m 13.897567,208.0887 -1.192774,13.6052 13.61026,1.13367 c 0.142785,-5.83844 -6.085659,-14.07325 -12.417486,-14.73887 z"
         id="path4990"
         sodipodi:nodetypes="cccc" />
    </g>
  </g>
</svg>
